<svg xmlns="http://www.w3.org/2000/svg" xmlns:xlink="http://www.w3.org/1999/xlink" version="1.1" id="Layer_1" x="0px" y="0px" style="enable-background:new 0 0 1920 1080;" xml:space="preserve" viewBox="581.63 486.49 756.72 107.01">
<g>
	<path d="M643.41,562.11c0,17.03-13.85,30.88-30.88,30.88s-30.88-13.85-30.88-30.88c0-3.76,3.05-6.81,6.81-6.81   c3.76,0,6.81,3.05,6.81,6.81c0,9.52,7.75,17.27,17.27,17.27c9.52,0,17.27-7.75,17.27-17.27c0-3.76,3.05-6.81,6.81-6.81   S643.41,558.35,643.41,562.11z M636.6,486.51c-3.76,0-6.81,3.05-6.81,6.81v22.52c0,9.52-7.75,17.27-17.27,17.27   c-9.52,0-17.27-7.75-17.27-17.27v-22.52c0-3.76-3.05-6.81-6.81-6.81c-3.76,0-6.81,3.05-6.81,6.81v22.52   c0,17.03,13.85,30.88,30.88,30.88s30.88-13.85,30.88-30.88v-22.52C643.41,489.56,640.36,486.51,636.6,486.51z M858.33,516.53   c0-16.55-13.85-30.02-30.88-30.02h-24.07c-3.76,0-6.81,3.05-6.81,6.81c0,3.76,3.05,6.81,6.81,6.81h24.07   c9.52,0,17.27,7.36,17.27,16.41c0,9.05-7.75,16.41-17.27,16.41h-24.07c-3.76,0-6.81,3.05-6.81,6.81c0,3.76,3.05,6.81,6.81,6.81   h24.07c9.52,0,17.27,7.36,17.27,16.41s-7.75,16.41-17.27,16.41h-24.07c-3.76,0-6.81,3.05-6.81,6.81c0,3.76,3.05,6.81,6.81,6.81   h24.07c17.03,0,30.88-13.47,30.88-30.02c0-9.35-4.42-17.71-11.32-23.22C853.92,534.24,858.33,525.88,858.33,516.53z M715.04,517.39   v44.72c0,17.03-13.85,30.88-30.88,30.88c-17.03,0-30.88-13.85-30.88-30.88v-44.72c0-17.03,13.85-30.88,30.88-30.88   C701.18,486.51,715.04,500.36,715.04,517.39z M701.42,517.39c0-9.52-7.75-17.27-17.27-17.27c-9.52,0-17.27,7.75-17.27,17.27v44.72   c0,9.52,7.75,17.27,17.27,17.27c9.52,0,17.27-7.75,17.27-17.27V517.39z M786.66,517.39v44.72c0,17.03-13.85,30.88-30.88,30.88   c-17.03,0-30.88-13.85-30.88-30.88v-44.72c0-17.03,13.85-30.88,30.88-30.88C772.81,486.51,786.66,500.36,786.66,517.39z    M773.05,517.39c0-9.52-7.75-17.27-17.27-17.27c-9.52,0-17.27,7.75-17.27,17.27v44.72c0,9.52,7.75,17.27,17.27,17.27   c9.52,0,17.27-7.75,17.27-17.27V517.39z M899.08,500.12h24.07c3.76,0,6.81-3.05,6.81-6.81c0-3.76-3.05-6.81-6.81-6.81h-24.07   c-17.03,0-30.88,13.47-30.88,30.02c0,9.35,4.42,17.71,11.32,23.22c-6.91,5.51-11.32,13.87-11.32,23.22   c0,16.55,13.85,30.02,30.88,30.02h24.07c3.76,0,6.81-3.05,6.81-6.81c0-3.76-3.05-6.81-6.81-6.81h-24.07   c-9.52,0-17.27-7.36-17.27-16.41s7.75-16.41,17.27-16.41h24.07c3.76,0,6.81-3.05,6.81-6.81c0-3.76-3.05-6.81-6.81-6.81h-24.07   c-9.52,0-17.27-7.36-17.27-16.41C881.81,507.48,889.56,500.12,899.08,500.12z M970.71,546.55h24.07c3.76,0,6.81-3.05,6.81-6.81   c0-3.76-3.05-6.81-6.81-6.81h-24.07c-9.52,0-17.27-7.36-17.27-16.41c0-9.05,7.75-16.41,17.27-16.41h24.07   c3.76,0,6.81-3.05,6.81-6.81c0-3.76-3.05-6.81-6.81-6.81h-24.07c-17.03,0-30.88,13.47-30.88,30.02c0,9.35,4.42,17.71,11.32,23.22   c-6.91,5.51-11.32,13.87-11.32,23.22c0,16.55,13.85,30.02,30.88,30.02h24.07c3.76,0,6.81-3.05,6.81-6.81   c0-3.76-3.05-6.81-6.81-6.81h-24.07c-9.52,0-17.27-7.36-17.27-16.41S961.19,546.55,970.71,546.55z" fill="#ffffff"/>
	<g>
		<path d="M1071.58,487.69c8.01,0,13.29,4.39,14.15,11.46h-6.5c-0.65-3.78-3.66-5.77-7.56-5.77c-5,0-8.29,3.13-8.29,9.02    c0,5.93,3.29,9.06,8.29,9.06c3.9,0,6.91-2.03,7.56-5.81h6.5c-0.85,7.11-6.14,11.5-14.15,11.5c-9.11,0-14.72-6.38-14.72-14.76    C1056.86,494.07,1062.47,487.69,1071.58,487.69z" fill="#ffffff"/>
		<path d="M1103.2,487.69c9.06,0,14.59,6.38,14.59,14.72c0,8.37-5.53,14.76-14.59,14.76c-9.11,0-14.63-6.38-14.63-14.76    C1088.57,494.07,1094.09,487.69,1103.2,487.69z M1103.2,511.47c5.41,0,8.09-3.54,8.09-9.06c0-5.49-2.68-9.02-8.09-9.02    s-8.13,3.54-8.13,9.02C1095.07,507.93,1097.79,511.47,1103.2,511.47z" fill="#ffffff"/>
		<path d="M1145.15,513.34v-25.24h6.5v22.97h13.94v5.69h-16.95C1146.41,516.79,1145.15,515.57,1145.15,513.34z" fill="#ffffff"/>
		<path d="M1121.45,513.34v-25.24h6.5v22.97h13.94v5.69h-16.95C1122.71,516.79,1121.45,515.57,1121.45,513.34z" fill="#ffffff"/>
		<path d="M1168.84,488.09h20.45v5.69h-13.94v5.77h11.91v5.69h-11.91v5.81h13.94v5.69h-20.45V488.09z" fill="#ffffff"/>
		<path d="M1205.35,487.69c7.2,0,12.76,4.39,13.62,10.65h-6.5c-0.65-3.37-2.81-4.96-7.11-4.96c-5,0-7.93,2.72-7.93,9.02    c0,6.34,2.32,9.06,7.03,9.06c3.9,0,6.34-1.95,6.34-5.81h-6.63v-4.88h14.96c2.24,0,3.46,1.22,3.46,3.46v12.52h-6.5v-9.88l1.22-4.47    h-1.63c-0.04,8.98-3.58,14.76-11.46,14.76c-8.58,0-13.29-5.98-13.29-14.76C1190.92,493.66,1197.06,487.69,1205.35,487.69z" fill="#ffffff"/>
		<path d="M1225.83,488.09h20.45v5.69h-13.94v5.77h11.91v5.69h-11.91v5.81h13.94v5.69h-20.45V488.09z" fill="#ffffff"/>
		<path d="M1071.49,525.85c9.06,0,14.59,6.38,14.59,14.72c0,8.37-5.53,14.76-14.59,14.76c-9.11,0-14.63-6.38-14.63-14.76    C1056.86,532.24,1062.39,525.85,1071.49,525.85z M1071.49,549.63c5.41,0,8.09-3.54,8.09-9.06c0-5.49-2.68-9.02-8.09-9.02    s-8.13,3.54-8.13,9.02C1063.36,546.1,1066.09,549.63,1071.49,549.63z" fill="#ffffff"/>
		<path d="M1089.74,526.26h20.45v5.69h-13.94v8.25l13.01-0.81v5.77l-13.01,0.81v8.94h-6.5V526.26z" fill="#ffffff"/>
		<path d="M1138.97,525.85c8.01,0,13.29,4.39,14.15,11.46h-6.5c-0.65-3.78-3.66-5.77-7.56-5.77c-5,0-8.29,3.13-8.29,9.02    c0,5.93,3.29,9.06,8.29,9.06c3.9,0,6.91-2.03,7.56-5.81h6.5c-0.85,7.11-6.14,11.5-14.15,11.5c-9.11,0-14.72-6.38-14.72-14.76    C1124.25,532.24,1129.86,525.85,1138.97,525.85z" fill="#ffffff"/>
		<path d="M1156.77,526.26h11.1c6.83,0,12.76,1.59,12.76,8.01c0,4.72-3.82,6.02-7.28,6.42v1.63h4.19c2.24,0,3.46,1.22,3.46,3.46    v9.15h-6.5v-10.08h-11.22v10.08h-6.5V526.26z M1167.87,539.15c3.86,0,6.26,0,6.26-3.58c0-3.62-2.4-3.62-6.26-3.62h-4.59v7.2    H1167.87z" fill="#ffffff"/>
		<path d="M1185.06,526.26h20.45v5.69h-13.94v5.77h11.91v5.69h-11.91v5.81h13.94v5.69h-20.45V526.26z" fill="#ffffff"/>
		<path d="M1228.72,545.73h-11.63l-2.56,9.19h-6.59l8.25-28.66h13.41l8.29,28.66h-6.59L1228.72,545.73z M1227.14,540.04l-3.41-12.15    h-1.63l-3.41,12.15H1227.14z" fill="#ffffff"/>
		<path d="M1259.9,531.95h-9.35v22.97h-6.5v-22.97h-9.39v-5.69h25.24V531.95z" fill="#ffffff"/>
		<path d="M1276.16,531.95v17.28h6.5v5.69h-19.51v-5.69h6.5v-17.28h-6.5v-5.69h19.51v5.69H1276.16z" fill="#ffffff"/>
		<path d="M1292.09,526.26l7.56,27.03h1.63l7.6-27.03h6.59l-8.29,28.66h-13.41l-8.25-28.66H1292.09z" fill="#ffffff"/>
		<path d="M1317.9,526.26h20.45v5.69h-13.94v5.77h11.91v5.69h-11.91v5.81h13.94v5.69h-20.45V526.26z" fill="#ffffff"/>
		<path d="M1069.87,570.12v17.28h6.5v5.69h-19.51v-5.69h6.5v-17.28h-6.5v-5.69h19.51v5.69H1069.87z" fill="#ffffff"/>
		<path d="M1080.11,564.43h12.81l8.66,27.03h1.63l-1.22-4.07v-22.97h6.5v28.66h-12.8l-8.66-27.03h-1.63l1.22,4.07v22.97h-6.5V564.43    z" fill="#ffffff"/>
		<path d="M1112.63,564.43h12.8l8.66,27.03h1.63l-1.22-4.07v-22.97h6.5v28.66h-12.8l-8.66-27.03h-1.63l1.22,4.07v22.97h-6.5V564.43z    " fill="#ffffff"/>
		<path d="M1158.97,564.02c9.06,0,14.59,6.38,14.59,14.72c0,8.37-5.53,14.76-14.59,14.76c-9.11,0-14.63-6.38-14.63-14.76    C1144.33,570.4,1149.86,564.02,1158.97,564.02z M1158.97,587.8c5.41,0,8.09-3.54,8.09-9.06c0-5.49-2.68-9.02-8.09-9.02    s-8.13,3.54-8.13,9.02C1150.84,584.26,1153.56,587.8,1158.97,587.8z" fill="#ffffff"/>
		<path d="M1181.04,564.43l7.56,27.03h1.63l7.6-27.03h6.59l-8.29,28.66h-13.41l-8.25-28.66H1181.04z" fill="#ffffff"/>
		<path d="M1221.61,583.9h-11.63l-2.56,9.19h-6.59l8.25-28.66h13.41l8.29,28.66h-6.59L1221.61,583.9z M1220.02,578.21l-3.41-12.15    h-1.63l-3.41,12.15H1220.02z" fill="#ffffff"/>
		<path d="M1252.87,570.12h-9.35v22.97h-6.5v-22.97h-9.39v-5.69h25.24V570.12z" fill="#ffffff"/>
		<path d="M1269.21,570.12v17.28h6.5v5.69h-19.51v-5.69h6.5v-17.28h-6.5v-5.69h19.51v5.69H1269.21z" fill="#ffffff"/>
		<path d="M1291.64,564.02c9.06,0,14.59,6.38,14.59,14.72c0,8.37-5.53,14.76-14.59,14.76c-9.11,0-14.63-6.38-14.63-14.76    C1277.01,570.4,1282.54,564.02,1291.64,564.02z M1291.64,587.8c5.41,0,8.09-3.54,8.09-9.06c0-5.49-2.68-9.02-8.09-9.02    s-8.13,3.54-8.13,9.02C1283.51,584.26,1286.24,587.8,1291.64,587.8z" fill="#ffffff"/>
		<path d="M1309.97,564.43h12.8l8.66,27.03h1.63l-1.22-4.07v-22.97h6.5v28.66h-12.81l-8.66-27.03h-1.63l1.22,4.07v22.97h-6.5V564.43    z" fill="#ffffff"/>
	</g>
</g>
</svg>